<mxfile host="app.diagrams.net" modified="2022-04-06T04:23:56.386Z" agent="5.0 (X11; Linux x86_64) AppleWebKit/537.36 (KHTML, like Gecko) Chrome/100.0.4896.60 Safari/537.36" etag="3Ezcwms-nPc_7xN7C4qG" version="17.4.0" type="github">
  <diagram id="C5RBs43oDa-KdzZeNtuy" name="Page-1">
    <mxGraphModel dx="1421" dy="798" grid="1" gridSize="10" guides="1" tooltips="1" connect="1" arrows="1" fold="1" page="1" pageScale="1" pageWidth="827" pageHeight="1169" math="0" shadow="0">
      <root>
        <mxCell id="WIyWlLk6GJQsqaUBKTNV-0" />
        <mxCell id="WIyWlLk6GJQsqaUBKTNV-1" parent="WIyWlLk6GJQsqaUBKTNV-0" />
        <mxCell id="WIyWlLk6GJQsqaUBKTNV-2" value="" style="rounded=0;html=1;jettySize=auto;orthogonalLoop=1;fontSize=11;endArrow=block;endFill=0;endSize=8;strokeWidth=1;shadow=0;labelBackgroundColor=none;edgeStyle=orthogonalEdgeStyle;entryX=0.5;entryY=0;entryDx=0;entryDy=0;" parent="WIyWlLk6GJQsqaUBKTNV-1" source="WIyWlLk6GJQsqaUBKTNV-3" target="I6_Xg3gt5-fiRwXa3cxr-1" edge="1">
          <mxGeometry relative="1" as="geometry">
            <mxPoint x="220" y="290" as="targetPoint" />
          </mxGeometry>
        </mxCell>
        <mxCell id="I6_Xg3gt5-fiRwXa3cxr-0" value="工具ts-gear&lt;br&gt;根据接口定义将定制信息&lt;br&gt;注入请求函数文档注释" style="edgeLabel;html=1;align=center;verticalAlign=middle;resizable=0;points=[];" vertex="1" connectable="0" parent="WIyWlLk6GJQsqaUBKTNV-2">
          <mxGeometry x="-0.1647" y="3" relative="1" as="geometry">
            <mxPoint as="offset" />
          </mxGeometry>
        </mxCell>
        <mxCell id="WIyWlLk6GJQsqaUBKTNV-3" value="swagger 接口定义" style="rounded=1;whiteSpace=wrap;html=1;fontSize=12;glass=0;strokeWidth=1;shadow=0;" parent="WIyWlLk6GJQsqaUBKTNV-1" vertex="1">
          <mxGeometry x="160" y="80" width="120" height="40" as="geometry" />
        </mxCell>
        <mxCell id="I6_Xg3gt5-fiRwXa3cxr-10" style="edgeStyle=orthogonalEdgeStyle;rounded=0;orthogonalLoop=1;jettySize=auto;html=1;exitX=0.5;exitY=1;exitDx=0;exitDy=0;" edge="1" parent="WIyWlLk6GJQsqaUBKTNV-1" source="I6_Xg3gt5-fiRwXa3cxr-1" target="I6_Xg3gt5-fiRwXa3cxr-7">
          <mxGeometry relative="1" as="geometry" />
        </mxCell>
        <mxCell id="I6_Xg3gt5-fiRwXa3cxr-1" value="&lt;span&gt;生成前端service层代码&lt;/span&gt;" style="rounded=1;whiteSpace=wrap;html=1;" vertex="1" parent="WIyWlLk6GJQsqaUBKTNV-1">
          <mxGeometry x="160" y="290" width="120" height="60" as="geometry" />
        </mxCell>
        <mxCell id="I6_Xg3gt5-fiRwXa3cxr-3" style="edgeStyle=orthogonalEdgeStyle;rounded=0;orthogonalLoop=1;jettySize=auto;html=1;exitX=0.5;exitY=1;exitDx=0;exitDy=0;entryX=0.5;entryY=0;entryDx=0;entryDy=0;" edge="1" parent="WIyWlLk6GJQsqaUBKTNV-1" source="I6_Xg3gt5-fiRwXa3cxr-2" target="I6_Xg3gt5-fiRwXa3cxr-5">
          <mxGeometry relative="1" as="geometry">
            <mxPoint x="450" y="290" as="targetPoint" />
          </mxGeometry>
        </mxCell>
        <mxCell id="I6_Xg3gt5-fiRwXa3cxr-6" value="添加抓取属性&lt;br&gt;data-datasource&lt;br&gt;进行标注" style="edgeLabel;html=1;align=center;verticalAlign=middle;resizable=0;points=[];" vertex="1" connectable="0" parent="I6_Xg3gt5-fiRwXa3cxr-3">
          <mxGeometry x="-0.2" y="4" relative="1" as="geometry">
            <mxPoint as="offset" />
          </mxGeometry>
        </mxCell>
        <mxCell id="I6_Xg3gt5-fiRwXa3cxr-2" value="前端需要展示接口信息React组件" style="rounded=1;whiteSpace=wrap;html=1;" vertex="1" parent="WIyWlLk6GJQsqaUBKTNV-1">
          <mxGeometry x="390" y="80" width="120" height="60" as="geometry" />
        </mxCell>
        <mxCell id="I6_Xg3gt5-fiRwXa3cxr-8" value="" style="edgeStyle=orthogonalEdgeStyle;rounded=0;orthogonalLoop=1;jettySize=auto;html=1;" edge="1" parent="WIyWlLk6GJQsqaUBKTNV-1" source="I6_Xg3gt5-fiRwXa3cxr-5" target="I6_Xg3gt5-fiRwXa3cxr-7">
          <mxGeometry relative="1" as="geometry" />
        </mxCell>
        <mxCell id="I6_Xg3gt5-fiRwXa3cxr-5" value="webpack打包编译" style="rounded=1;whiteSpace=wrap;html=1;" vertex="1" parent="WIyWlLk6GJQsqaUBKTNV-1">
          <mxGeometry x="390" y="290" width="120" height="60" as="geometry" />
        </mxCell>
        <mxCell id="I6_Xg3gt5-fiRwXa3cxr-12" value="" style="edgeStyle=orthogonalEdgeStyle;rounded=0;orthogonalLoop=1;jettySize=auto;html=1;" edge="1" parent="WIyWlLk6GJQsqaUBKTNV-1" source="I6_Xg3gt5-fiRwXa3cxr-7" target="I6_Xg3gt5-fiRwXa3cxr-11">
          <mxGeometry relative="1" as="geometry" />
        </mxCell>
        <mxCell id="I6_Xg3gt5-fiRwXa3cxr-7" value="调用工具extract-service-doc&lt;br&gt;将标注有data-datasource的组件相关的service层信息数据，注入到前端组件中" style="rounded=1;whiteSpace=wrap;html=1;" vertex="1" parent="WIyWlLk6GJQsqaUBKTNV-1">
          <mxGeometry x="246" y="470" width="196" height="80" as="geometry" />
        </mxCell>
        <mxCell id="I6_Xg3gt5-fiRwXa3cxr-11" value="前端ui层定制组件&lt;br&gt;展示来自swagger层的数据信息" style="whiteSpace=wrap;html=1;rounded=1;" vertex="1" parent="WIyWlLk6GJQsqaUBKTNV-1">
          <mxGeometry x="284" y="620" width="120" height="60" as="geometry" />
        </mxCell>
      </root>
    </mxGraphModel>
  </diagram>
</mxfile>
